<?xml version="1.0" encoding="UTF-8"?>
<svg id="Layer_2" data-name="Layer 2" xmlns="http://www.w3.org/2000/svg" viewBox="0 0 200 200">
  <defs>
    <style>
      .cls-1 {
        fill: #fff;
      }

      .cls-2 {
        fill: none;
      }
    </style>
  </defs>
  <g id="Layer_1-2" data-name="Layer 1">
    <path class="cls-1" d="M98.01,21.02c1.68-.46,3.23-.5,4.79.38l75.58,50.92c.84,1.51.74,3.16.89,4.81,1.05,11.35,1.05,34.32,0,45.67-.18,1.94-.09,3.85-1.31,5.52l-77.96,50.92L21.62,127.61c-.84-1.51-.74-3.16-.89-4.81-1.05-11.35-1.05-34.32,0-45.67.18-1.94.09-3.85,1.31-5.52L98.01,21.02ZM93.73,40.16l-53.55,35.88,23.35,15.37,30.21-19.92v-31.33ZM106.27,40.16v31.33l30.21,19.92,23.35-15.37-53.55-35.88ZM100,83.77l-23.35,16.19,23.35,16.19,23.35-16.19-23.35-16.19ZM34.46,89.14v21.64l17.11-10.82-17.11-10.82ZM165.54,89.14l-17.11,10.82,17.11,10.82v-21.64ZM93.73,159.77v-31.33l-30.21-19.92-23.35,15.37,53.55,35.88ZM106.27,159.77l53.55-35.88-23.35-15.37-30.21,19.92v31.33Z"/>
    <rect class="cls-2" width="200" height="200"/>
  </g>
</svg>