<?xml version="1.0" encoding="UTF-8"?>
<svg id="Layer_2" data-name="Layer 2" xmlns="http://www.w3.org/2000/svg" viewBox="0 0 200 200">
  <defs>
    <style>
      .cls-1 {
        fill: none;
      }
    </style>
  </defs>
  <g id="Layer_1-2" data-name="Layer 1">
    <rect class="cls-1" width="200" height="200"/>
    <g>
      <path d="M141.36,81.37c0-2.36.02-4.75.02-7.14,0-.54,0-1.08,0-1.62,0-2.07,0-4.15,0-6.23,0-.52,0-1.05,0-1.57,0-2.43,0-4.86-.01-7.29-2.36,1.77-4.72,3.54-7.08,5.31-.66.5-1.32.99-1.99,1.49-9.63,7.24-19.58,14.73-29.44,22.01-.86.63-1.87.95-2.89.96,0,0-.02,0-.03,0,0,0,0,0,0,0-.25,0-.5-.02-.75-.06,0,0-.01,0-.02,0-.24-.04-.48-.1-.72-.17-.01,0-.03,0-.04-.01-.22-.07-.44-.17-.66-.28-.02-.01-.05-.02-.07-.03-.17-.09-.32-.19-.48-.3-.07-.05-.14-.08-.2-.13l-57.53-43.17s0,0,0,0c-.25-.17-.51-.33-.77-.48-.09-.05-.18-.1-.27-.14-.18-.1-.36-.19-.54-.28-.1-.05-.21-.1-.31-.14-.18-.08-.36-.16-.54-.23-.1-.04-.2-.08-.3-.11-.23-.08-.45-.15-.68-.22-.05-.02-.11-.03-.16-.05-.61-.17-1.24-.29-1.87-.36,0,0-.02,0-.03,0-.64-.07-1.3-.09-1.95-.05-.03,0-.06,0-.09,0-1.62.1-3.26.52-4.81,1.27-4.1,1.98-6.73,5.81-7.03,10.25-.22,3.3-.14,7.05-.07,10.69.02,1.09.05,2.19.06,3.29.88.66,1.77,1.32,2.65,1.98,1.27.95,2.54,1.89,3.81,2.84,1.09.81,2.17,1.62,3.25,2.43,1.32.99,2.63,1.97,3.95,2.95,1.01.75,2,1.5,3.01,2.25,3.67,2.75,7.33,5.5,10.93,8.21l52.23,39.21,41.36-30.99c0-4.69.02-9.38.04-14.06Z"/>
      <path d="M179.87,52.77c-.26-4.47-2.81-8.34-6.81-10.35-1.8-.9-3.72-1.35-5.64-1.35,0,0-.01,0-.02,0h-.03c-.28,0-.56.01-.83.03-.14,0-.28.02-.42.04-.12.01-.25.02-.37.04-.21.03-.43.06-.64.1-.04,0-.08.02-.12.02-1.59.32-3.14.94-4.56,1.88-2.39,1.57-4.9,3.54-7.34,5.45-.64.5-1.29,1.01-1.95,1.52.01,1.36.02,2.73.03,4.09,0,1.06.02,2.12.02,3.18,0,1.72,0,3.44.01,5.16,0,.98,0,1.96,0,2.93,0,1.66,0,3.3,0,4.95,0,1.06,0,2.13,0,3.19,0,2.6-.02,5.18-.03,7.74,0,2.22,0,4.45-.02,6.67l28.72-21.51c.01-1.1.03-2.21.06-3.3.07-3.54.14-7.21-.06-10.49Z"/>
      <path d="M151.13,100.34v58.29s22.14,0,22.14,0c3.32-.24,5.7-2.2,6.44-5.27.21-24.82.21-49.49.17-74.55l-24.11,18.06-4.64,3.48Z"/>
      <path d="M146.91,41.03H53.03l31.01,23.27,15.94,11.96c8.88-6.58,17.8-13.29,26.47-19.81,5.57-4.19,11.13-8.37,16.71-12.54,1.22-.91,2.44-1.87,3.74-2.88Z"/>
      <path d="M48.89,158.63v-38.88s0-19.42,0-19.42l-5.91-4.44-1.12-.84c-2.37-1.78-4.75-3.57-7.15-5.37-.1-.08-.2-.15-.3-.23-2.07-1.55-4.15-3.12-6.24-4.68-.47-.35-.94-.7-1.4-1.05-2.2-1.65-4.41-3.3-6.62-4.95,0,10.92,0,21.88,0,32.57.01,13.46.02,27.37,0,41.06.28,3.37,3.02,6.01,6.45,6.23h22.29Z"/>
      <path d="M102.22,136.9c-.71.37-1.48.55-2.26.55-1.04,0-2.07-.33-2.94-.98l-38.34-28.77v33.96s0,16.97,0,16.97h82.63v-50.84l-38.42,28.69c-.18.14-.38.25-.58.36-.03.02-.06.04-.1.06Z"/>
    </g>
  </g>
</svg>