<?xml version="1.0" encoding="UTF-8"?>
<svg id="Layer_2" data-name="Layer 2" xmlns="http://www.w3.org/2000/svg" viewBox="0 0 200 200">
  <defs>
    <style>
      .cls-1 {
        fill: #fff;
      }

      .cls-2 {
        fill: none;
      }
    </style>
  </defs>
  <g id="Layer_1-2" data-name="Layer 1">
    <path class="cls-1" d="M161.21,50.54c34.87,41.55,19.13,105.95-31.35,125.7-3.36,1.31-8.87,3.72-9.89-1.59-.4-8.34.61-17.27-.16-25.53-.41-4.39-1.87-8.84-5.26-11.81-.07-.37.17-.21.4-.23,14.2-1.5,27.41-6.53,32.92-20.71,3.11-7.98,4.24-19.54,1.87-27.8-1.3-4.54-3.75-8.61-6.92-12.08.24-.97.65-1.91.89-2.88,1.57-6.17.62-12.41-1.7-18.27-3.15-.84-6.47.29-9.42,1.41-4.46,1.69-8.57,4.15-12.56,6.74-12.99-3.61-27.03-3.57-40.02,0-3.87-2.76-8.26-5.06-12.71-6.74-2.91-1.1-6.08-2.15-9.22-1.49-1.73,4.41-2.69,9-2.44,13.78.03.58.11,1.48.18,2.05.26,1.86,1.08,3.57,1.39,5.41-1.77,2.17-3.51,4.36-4.79,6.87-5.25,10.27-3.82,25.89,1.19,36.04,5.95,12.05,18.92,16.36,31.48,17.68.17.02.54-.1.4.23-.12.3-.71.56-.9.78-2.48,2.82-3.6,6.31-4.25,9.96-.45.47-4.8,1.61-5.67,1.75-6,.93-10.98-.16-15.03-4.82-1.57-1.8-2.54-4.18-4.07-5.98-2.1-2.48-6.43-5.5-9.73-5.75-2.42-.18-6.18-.24-3.43,2.95,1.25,1.45,2.81,1.95,4.22,3.12,3.85,3.21,5.01,7.08,7.03,11.32,3.26,6.86,9.61,8.77,16.75,9.1,3.3.15,6.57-.18,9.82-.65l.11,15.19c-1,5.66-6.27,3.41-9.89,2C26.39,159.11,6.9,105.87,29.6,64.05,56.45,14.59,124.85,7.2,161.21,50.54Z"/>
    <rect class="cls-2" width="200" height="200"/>
  </g>
</svg>