<?xml version="1.0" encoding="UTF-8"?>
<svg id="Layer_2" data-name="Layer 2" xmlns="http://www.w3.org/2000/svg" viewBox="0 0 200 200">
  <defs>
    <style>
      .cls-1 {
        fill: #fff;
      }

      .cls-2 {
        fill: none;
      }
    </style>
  </defs>
  <g id="Layer_1-2" data-name="Layer 1">
    <path class="cls-1" d="M167.46,179.9H32.13c-4.05-1.25-7.64-3.06-9.95-6.78-1.04-1.67-1.32-3.45-2.24-5.1V31.75c1.72-5.6,5.32-10.03,11.17-11.49,45.81-.65,91.87-.65,137.68,0,5.29,1.32,9.46,5.5,10.78,10.78.65,45.81.65,91.87,0,137.68-1.14,4.5-4.36,8.33-8.68,10.08l-3.43,1.1ZM55.83,37.44c-22.56.47-21.87,36.27,2.71,33.99,20.37-1.89,19.29-34.45-2.71-33.99ZM107.77,88.63v-6.72c0-1.8-2.61-3.14-4.21-3.29-4.03-.38-14.89-.5-18.74.04-2.39.34-3.43,2.26-3.63,4.49v74.1c.05,3.14,1.42,4.83,4.55,5.14,4.25.43,12.9.38,17.2.01,2.57-.22,4.35-1.22,4.84-3.91.77-13.52-1.05-28.21-.02-41.59.57-7.42,4.71-16,12.97-16.72,11.15-.98,14.93,6.93,15.5,16.72.8,13.68-.62,28.14-.02,41.9.41,2.29,2.03,3.36,4.23,3.58,4.36.44,14.07.44,18.43,0,1.85-.19,3.44-.96,4.08-2.8-.23-15.31.81-31.16.16-46.44-.55-13.08-3.96-28.17-17.43-33.51-8.59-3.4-22.03-3.08-30.06,1.67-3.26,1.93-5.42,4.5-7.84,7.32ZM68.28,161.04c.35-.35.6-1.01.9-1.44l.07-77.92c-.53-1.72-1.76-2.77-3.55-3.01-5.81-.79-13.29.47-19.28.04-1.69.56-3.14,2-3.36,3.83l.15,76.44c.63,2.46,2.34,3.2,4.71,3.42,4.17.37,12.74.42,16.87,0,1.1-.11,2.71-.57,3.49-1.35Z"/>
    <rect class="cls-2" width="200" height="200"/>
  </g>
</svg>